<svg xmlns="http://www.w3.org/2000/svg" xmlns:xlink="http://www.w3.org/1999/xlink" width="200" zoomAndPan="magnify" viewBox="0 0 375 374.999991" height="200" preserveAspectRatio="xMidYMid meet" version="1.0"><defs><clipPath id="8d6a242c4b"><path d="M 5.074219 331 L 369.574219 331 L 369.574219 347 L 5.074219 347 Z M 5.074219 331 " clip-rule="nonzero"/></clipPath></defs><g clip-path="url(#8d6a242c4b)"><path stroke-linecap="round" transform="matrix(1.497535, 0, 0, 1.500531, -14.841595, -4.099599)" fill="none" stroke-linejoin="round" d="M 18.440328 228.790129 L 251.560426 228.790129 " stroke="#252524" stroke-width="10.26" stroke-opacity="1" stroke-miterlimit="4"/></g><path stroke-linecap="round" transform="matrix(1.497535, 0, 0, 1.500531, -14.841595, -4.099599)" fill="none" stroke-linejoin="round" d="M 222.290969 188.999521 C 209.449553 163.159706 184.39014 143.349008 153.751245 135.370061 " stroke="#252524" stroke-width="10.26" stroke-opacity="1" stroke-miterlimit="4"/><path stroke-linecap="round" transform="matrix(1.497535, 0, 0, 1.500531, -14.841595, -4.099599)" fill="none" stroke-linejoin="round" d="M 95.919222 27.488964 C 95.919222 27.488964 108.220689 31.831178 106.230439 43.129263 C 104.970556 50.309014 92.669089 54.370077 94.228944 66.311164 C 95.019306 72.309042 104.229755 77.728999 104.229755 77.728999 " stroke="#252524" stroke-width="10.26" stroke-opacity="1" stroke-miterlimit="4"/><path stroke-linecap="round" transform="matrix(1.497535, 0, 0, 1.500531, -14.841595, -4.099599)" fill="none" stroke-linejoin="round" d="M 130.640347 27.488964 C 130.640347 27.488964 142.939205 31.831178 140.948955 43.129263 C 139.689072 50.309014 127.37978 54.370077 128.950069 66.311164 C 129.750864 72.309042 138.95088 77.728999 138.95088 77.728999 " stroke="#252524" stroke-width="10.26" stroke-opacity="1" stroke-miterlimit="4"/><path stroke-linecap="round" transform="matrix(1.497535, 0, 0, 1.500531, -14.841595, -4.099599)" fill="none" stroke-linejoin="round" d="M 163.449475 27.488964 C 163.449475 27.488964 175.750942 31.831178 173.771126 43.129263 C 172.500809 50.309014 160.199342 54.370077 161.769631 66.311164 C 162.559992 72.309042 171.770442 77.728999 171.770442 77.728999 " stroke="#252524" stroke-width="10.26" stroke-opacity="1" stroke-miterlimit="4"/><path stroke-linecap="round" transform="matrix(1.497535, 0, 0, 1.500531, -14.841595, -4.099599)" fill="none" stroke-linejoin="round" d="M 148.589115 118.001207 C 148.664761 116.91305 148.6152 115.835307 148.440434 114.760166 C 148.364788 114.33844 148.268276 113.919318 148.153504 113.505402 C 148.036123 113.091486 147.903092 112.68538 147.749193 112.28448 C 147.595295 111.88358 147.423137 111.49049 147.230111 111.105209 C 147.039694 110.719929 146.831018 110.345062 146.604082 109.980607 C 146.377147 109.616153 146.134561 109.262112 145.873715 108.921087 C 145.61287 108.580061 145.338982 108.249449 145.046835 107.934456 C 144.757297 107.619464 144.4495 107.317487 144.131268 107.03113 C 143.810429 106.744773 143.479155 106.474036 143.132231 106.218918 C 142.787915 105.961196 142.430557 105.724301 142.062765 105.503025 C 141.694973 105.279146 141.319355 105.076093 140.930696 104.891262 C 140.544645 104.703829 140.14816 104.537221 139.746458 104.388836 C 139.342148 104.240451 138.935229 104.110289 138.517876 104.000953 C 138.103132 103.891616 137.683171 103.800503 137.260602 103.730215 C 136.835424 103.659927 136.410246 103.610466 135.98246 103.58183 C 135.554673 103.550591 135.124278 103.542781 134.696492 103.553194 C 134.266097 103.563607 133.838311 103.594846 133.410524 103.644308 C 132.985346 103.696373 132.562777 103.76666 132.142816 103.857774 C 131.722855 103.948888 131.308111 104.060827 130.898584 104.190989 C 130.489056 104.321152 130.087355 104.47214 129.693478 104.638748 C 129.296993 104.807959 128.910942 104.995392 128.535325 105.198445 C 128.157099 105.404102 127.789307 105.627981 127.434557 105.86748 C 127.077199 106.106978 126.732883 106.362096 126.40161 106.635437 C 126.067728 106.906175 125.749496 107.195135 125.444307 107.497111 C 125.139118 107.799088 124.84958 108.11408 124.575692 108.444693 C 124.299196 108.775305 124.040959 109.11633 123.798373 109.470371 C 123.555787 109.824413 123.328852 110.19147 123.122784 110.566338 C 122.914107 110.941205 122.72369 111.326485 122.551532 111.719575 C 122.379375 112.112666 122.228084 112.513565 122.092445 112.922275 C 121.959413 113.330984 121.844642 113.7449 121.750737 114.164023 C 121.654224 114.580542 121.581188 115.004871 121.52641 115.4292 C 121.471633 115.856133 121.437723 116.283065 121.422072 116.7126 C 121.40903 117.142136 121.414247 117.571671 121.440331 118.001207 C 67.909648 123.928797 26.440454 164.391042 26.440454 213.509078 L 243.539431 213.509078 C 243.539431 164.398851 202.098931 123.999084 148.589115 118.001207 Z M 148.589115 118.001207 " stroke="#252524" stroke-width="10.26" stroke-opacity="1" stroke-miterlimit="4"/></svg>